<?xml version="1.0" standalone="no"?>
<!DOCTYPE svg PUBLIC "-//W3C//DTD SVG 20010904//EN"
 "http://www.w3.org/TR/2001/REC-SVG-20010904/DTD/svg10.dtd">
<svg version="1.0" xmlns="http://www.w3.org/2000/svg"
 width="600.000000pt" height="417.000000pt" viewBox="0 0 600.000000 417.000000"
 preserveAspectRatio="xMidYMid meet">
<g transform="translate(0.000000,417.000000) scale(0.100000,-0.100000)"
fill="#c79b4b" stroke="none">
<path d="M23 4115 c0 -8 4 -12 8 -9 4 2 1335 4 2958 4 2245 1 2956 -2 2974
-11 22 -12 22 -12 3 10 l-19 21 -2962 0 c-2586 0 -2962 -2 -2962 -15z"/>
<path d="M2377 3195 c-20 -19 -23 -149 -26 -1120 -2 -870 -2 -891 19 -910 34
-31 47 1 54 132 11 210 6 1886 -6 1900 -14 17 -23 16 -41 -2z m23 -1015 c0
-667 -3 -1010 -10 -1010 -7 0 -10 343 -10 1010 0 667 3 1010 10 1010 7 0 10
-343 10 -1010z"/>
<path d="M167 3018 c-17 -18 -17 -21 -2 -38 9 -10 30 -21 48 -25 18 -4 34 -8
37 -9 18 -5 31 -20 26 -33 -3 -8 -1 -11 4 -8 6 3 10 -2 10 -12 0 -11 7 -28 15
-39 8 -10 15 -27 15 -36 0 -9 11 -43 24 -75 13 -32 32 -87 41 -123 10 -36 23
-78 30 -95 7 -16 25 -65 39 -109 15 -43 33 -91 41 -106 8 -15 12 -30 9 -32 -2
-3 2 -18 10 -33 8 -15 12 -34 9 -41 -3 -8 0 -14 7 -14 6 0 9 -4 5 -10 -3 -5
-1 -17 4 -27 29 -54 48 -108 39 -112 -5 -1 -2 -12 8 -22 9 -10 14 -19 11 -19
-6 0 7 -38 38 -115 4 -11 10 -29 12 -40 2 -11 11 -26 20 -33 14 -10 20 -9 34
5 17 17 65 140 76 193 3 14 10 30 15 37 5 7 7 17 3 23 -3 5 -2 10 3 10 5 0 9
6 10 13 0 6 10 39 22 72 11 33 21 70 22 83 2 12 6 22 10 22 4 0 8 8 8 18 0 10
16 55 35 101 19 45 35 89 35 97 0 8 5 14 11 14 5 0 8 4 5 9 -3 5 0 11 8 14 10
4 12 0 8 -15 -4 -16 -2 -19 8 -13 8 5 11 4 7 -2 -4 -6 0 -24 8 -39 8 -16 15
-36 15 -45 0 -9 7 -30 15 -45 8 -16 15 -39 15 -52 0 -14 4 -21 11 -16 8 4 9 0
4 -15 -4 -12 0 -30 9 -43 9 -12 16 -32 16 -45 0 -12 5 -25 10 -28 6 -3 10 -14
10 -23 0 -9 6 -29 14 -44 8 -15 17 -42 20 -60 7 -49 17 -78 25 -74 3 2 7 -6 8
-17 0 -12 8 -38 16 -57 8 -19 16 -39 17 -45 1 -5 8 -18 17 -27 25 -28 54 -2
69 64 2 9 15 41 28 72 13 30 22 57 18 60 -3 3 0 6 7 6 8 0 10 8 7 23 -3 12 -3
16 0 9 3 -6 11 -9 16 -6 7 4 8 2 4 -5 -4 -6 -7 -88 -6 -180 0 -137 -2 -172
-14 -184 -8 -8 -12 -18 -8 -22 4 -5 1 -5 -6 0 -19 11 -62 -15 -62 -37 0 -33
46 -40 235 -37 177 3 255 12 255 31 0 5 4 7 9 3 5 -3 12 -1 16 5 4 6 11 7 17
4 7 -4 8 -2 4 4 -4 7 -1 12 7 12 8 0 21 10 30 23 8 12 24 31 34 42 18 18 23
28 23 39 0 10 182 -86 202 -107 32 -32 48 -71 48 -116 0 -32 -8 -46 -44 -85
-41 -43 -76 -62 -60 -33 6 10 4 10 -7 0 -21 -20 -90 -16 -124 8 -16 11 -40 24
-52 29 -13 5 -23 14 -23 20 0 6 -5 8 -12 4 -8 -5 -9 -2 -5 9 3 10 2 17 -4 17
-6 0 -7 4 -4 10 3 5 2 10 -2 10 -5 0 -10 12 -11 26 -2 27 -26 53 -49 54 -19 0
-30 -58 -27 -142 3 -102 10 -122 37 -113 32 11 107 6 137 -8 47 -24 240 -4
240 25 0 5 4 7 9 4 12 -8 86 63 109 104 36 67 46 130 28 195 -5 22 -16 46 -23
53 -7 8 -11 17 -8 21 2 5 -9 23 -25 41 -17 19 -30 30 -30 25 0 -4 -8 2 -19 13
-10 12 -21 19 -25 15 -3 -3 -6 -1 -6 6 0 7 -4 10 -9 7 -5 -3 -14 0 -20 8 -7 8
-23 17 -37 20 -14 4 -22 11 -19 16 3 5 -4 7 -15 5 -11 -2 -20 0 -20 6 0 5 -6
9 -12 10 -17 1 -104 54 -99 60 2 2 -2 15 -9 29 -8 14 -13 30 -11 35 1 6 -1 7
-5 3 -12 -12 -34 42 -31 77 1 18 5 31 10 28 4 -2 7 2 7 9 0 18 46 44 93 52 43
8 105 -8 125 -33 11 -12 12 -13 6 -1 -4 9 2 6 13 -5 11 -11 18 -26 15 -34 -3
-9 -1 -12 6 -7 8 5 12 -3 12 -24 0 -17 4 -29 8 -26 4 2 8 -3 9 -12 3 -42 11
-57 31 -60 32 -5 40 23 38 134 -1 116 -14 148 -47 118 -13 -12 -19 -13 -19 -4
0 10 -4 9 -17 -1 -14 -12 -16 -12 -8 0 5 10 4 12 -4 7 -6 -4 -18 -2 -26 4 -24
20 -125 29 -172 15 -24 -7 -43 -11 -43 -8 0 3 -6 1 -12 -4 -7 -6 -20 -12 -29
-16 -14 -5 -15 -1 -3 31 27 77 8 183 -45 250 -35 43 -118 90 -161 91 -14 0
-44 0 -67 1 -51 0 -54 11 -21 80 12 25 20 51 19 57 -1 7 5 26 14 43 8 16 12
30 8 30 -5 0 0 5 10 11 12 7 16 17 12 30 -4 11 -2 19 5 19 6 0 8 5 5 10 -3 6
1 10 9 10 8 0 18 5 22 12 4 7 3 8 -4 4 -7 -4 -12 -4 -12 -1 0 6 65 37 86 41
35 6 52 17 57 34 3 13 -1 21 -14 25 -11 4 -17 9 -15 13 2 4 -75 7 -171 7 -154
0 -176 -2 -187 -17 -7 -10 -16 -15 -19 -11 -4 3 -7 0 -7 -9 0 -15 33 -37 63
-42 9 -1 20 -5 23 -9 4 -4 18 -7 31 -7 14 0 21 -4 18 -10 -3 -5 -2 -10 3 -10
15 0 4 -93 -16 -147 -11 -26 -22 -64 -26 -84 -11 -63 -34 -79 -110 -79 -76 0
-109 -18 -89 -49 6 -9 18 -15 27 -15 9 1 13 -2 10 -7 -2 -5 6 -11 19 -14 21
-6 23 -11 20 -49 -3 -24 0 -60 5 -80 8 -29 6 -46 -10 -88 -11 -29 -22 -64 -25
-78 -3 -14 -11 -33 -18 -43 -12 -17 -13 -17 -20 0 -4 10 -9 28 -11 41 -1 13
-8 30 -14 37 -7 8 -9 19 -5 25 3 5 1 10 -5 10 -6 0 -10 6 -9 13 1 6 -1 21 -5
32 -4 11 -12 31 -16 45 -4 14 -11 34 -15 45 -3 11 -6 21 -6 23 1 1 -6 18 -14
38 -8 20 -12 40 -9 45 3 5 1 9 -4 9 -8 0 -13 11 -27 63 -2 4 -3 8 -5 10 -1 1
-3 9 -5 19 -2 9 -17 58 -34 110 -17 51 -36 106 -41 121 -10 32 -3 60 13 50 6
-4 8 0 4 9 -3 9 0 15 6 15 33 -2 98 17 112 33 14 15 13 18 -5 35 -19 17 -41
19 -241 19 -209 0 -220 -1 -240 -21 l-21 -20 29 -20 c26 -19 79 -38 95 -35 4
1 5 -5 1 -14 -3 -9 -1 -14 7 -12 11 3 24 -23 56 -107 4 -11 6 -25 5 -32 -1 -6
3 -14 9 -18 5 -3 10 -17 10 -30 0 -13 5 -36 12 -49 9 -22 8 -29 -7 -46 -10
-11 -15 -20 -11 -20 4 0 2 -10 -5 -21 -9 -17 -8 -20 3 -13 10 6 11 5 2 -7 -5
-8 -23 -48 -38 -89 -16 -41 -32 -84 -36 -95 -19 -51 -44 -141 -41 -154 1 -7
-2 -10 -8 -6 -7 4 -14 -6 -17 -25 l-7 -31 -13 27 c-8 14 -12 30 -9 34 3 5 1
11 -4 14 -5 4 -12 24 -16 46 -4 25 -11 38 -17 33 -7 -3 -8 -1 -4 5 4 6 3 19
-3 29 -5 10 -23 63 -41 118 -17 55 -35 109 -40 120 -5 11 -18 49 -29 85 -10
36 -29 91 -41 124 -23 63 -34 140 -19 131 5 -4 9 -2 9 4 0 6 17 13 38 17 72
13 90 35 53 66 -16 14 -46 16 -208 14 -103 -1 -194 -6 -202 -10 -10 -6 -12 -5
-7 2 12 19 -7 12 -27 -10z m433 -23 c3 -5 -13 -11 -35 -13 -49 -4 -83 -25 -90
-55 -4 -14 46 -177 132 -434 l138 -412 103 298 103 297 -37 104 c-20 58 -42
117 -50 133 -19 36 -70 67 -111 67 -22 0 -33 5 -33 15 0 12 34 14 233 12 148
-1 231 -6 230 -12 -2 -5 -22 -11 -45 -13 -63 -4 -102 -31 -106 -70 -4 -36 258
-837 269 -824 3 4 25 65 48 135 30 95 41 144 41 191 0 115 -12 140 -71 149
-13 2 -24 8 -26 13 -2 5 36 8 86 6 l90 -4 39 129 c54 174 55 178 37 217 -18
38 -51 56 -100 56 -24 0 -35 5 -35 15 0 13 27 15 180 15 153 0 180 -2 180 -15
0 -10 -10 -15 -34 -15 -44 0 -96 -36 -123 -86 -21 -38 -113 -285 -113 -303 0
-5 37 -9 82 -10 162 -3 257 -82 258 -215 0 -102 -51 -188 -132 -221 l-43 -18
30 -7 c17 -4 39 -11 49 -17 17 -9 22 -5 40 31 26 50 90 92 163 106 53 10 92 5
187 -21 39 -11 50 -11 53 -1 3 6 9 12 14 12 5 0 9 -49 9 -110 0 -67 -4 -110
-10 -110 -5 0 -10 10 -10 21 0 40 -23 98 -52 133 -72 88 -230 79 -288 -17 -27
-43 -25 -82 4 -120 14 -18 28 -44 31 -60 9 -35 34 -52 169 -118 163 -80 209
-136 210 -259 0 -74 -21 -125 -76 -177 -72 -70 -176 -87 -313 -53 -81 20 -90
21 -100 6 -7 -9 -15 -16 -19 -16 -3 0 -6 50 -6 110 0 67 4 110 10 110 6 0 10
-8 10 -17 0 -10 11 -41 24 -70 29 -61 77 -97 153 -114 139 -31 256 76 223 204
-20 73 -58 102 -280 215 -3 1 -12 -14 -19 -34 -19 -53 -84 -111 -144 -129 -60
-18 -437 -22 -437 -5 0 6 11 10 24 10 13 0 34 9 47 19 l24 19 2 294 2 293 -72
-213 c-39 -116 -75 -211 -80 -209 -4 1 -67 181 -141 400 l-133 397 -21 -57
c-79 -220 -242 -712 -242 -730 0 -7 -6 -13 -12 -13 -8 0 -81 204 -187 523 -96
287 -182 539 -192 559 -21 40 -63 68 -103 68 -24 0 -41 12 -31 22 10 9 420 3
425 -7z"/>
<path d="M421 2894 c0 -11 3 -14 6 -6 3 7 2 16 -1 19 -3 4 -6 -2 -5 -13z"/>
<path d="M1052 2640 c0 -14 2 -19 5 -12 2 6 2 18 0 25 -3 6 -5 1 -5 -13z"/>
<path d="M1496 2544 c-3 -9 -6 -106 -6 -216 l0 -201 61 7 c79 8 114 30 144 90
20 40 25 65 25 126 0 134 -60 210 -165 210 -39 0 -54 -4 -59 -16z m127 -31
c-1 -6 4 -14 13 -17 8 -3 12 -2 9 4 -3 6 -4 10 -1 10 3 0 16 -21 29 -47 32
-65 30 -160 -4 -229 -13 -27 -28 -47 -33 -46 -5 2 -12 -1 -15 -7 -4 -6 -28
-14 -55 -17 l-47 -7 2 181 c1 99 -1 184 -4 188 -3 5 20 7 51 4 35 -3 56 -9 55
-17z"/>
<path d="M1430 2541 c0 -6 4 -13 10 -16 6 -3 7 1 4 9 -7 18 -14 21 -14 7z"/>
<path d="M1763 2417 c0 -8 6 -14 14 -14 9 0 10 4 2 14 -6 7 -12 13 -14 13 -1
0 -2 -6 -2 -13z"/>
<path d="M1421 2254 c0 -11 3 -14 6 -6 3 7 2 16 -1 19 -3 4 -6 -2 -5 -13z"/>
<path d="M1247 2107 c-3 -8 1 -14 8 -14 7 0 11 6 8 14 -3 7 -6 13 -8 13 -2 0
-5 -6 -8 -13z"/>
<path d="M1492 1889 c3 -218 3 -221 27 -240 54 -44 172 -9 225 68 55 79 46
258 -17 330 -40 46 -86 63 -169 63 l-70 0 4 -221z m154 180 c3 -5 14 -9 25 -9
11 0 18 -4 15 -9 -8 -12 19 -33 30 -23 5 4 6 3 2 -2 -4 -4 -1 -15 7 -22 30
-31 39 -167 15 -240 -14 -40 -51 -82 -69 -76 -8 3 -11 0 -8 -5 9 -14 -65 -30
-100 -21 -19 5 -33 16 -37 30 -3 13 -6 105 -6 205 l0 182 43 3 c49 3 75 -1 83
-13z"/>
<path d="M1280 2061 c0 -6 4 -13 10 -16 6 -3 7 1 4 9 -7 18 -14 21 -14 7z"/>
<path d="M2080 1801 c0 -6 4 -13 10 -16 6 -3 7 1 4 9 -7 18 -14 21 -14 7z"/>
<path d="M2010 1790 c8 -5 20 -10 25 -10 6 0 3 5 -5 10 -8 5 -19 10 -25 10 -5
0 -3 -5 5 -10z"/>
<path d="M1823 1755 c0 -8 4 -12 9 -9 5 3 6 10 3 15 -9 13 -12 11 -12 -6z"/>
<path d="M1804 1710 c0 -13 4 -16 10 -10 7 7 7 13 0 20 -6 6 -10 3 -10 -10z"/>
<path d="M1765 1702 c3 -3 -3 -15 -12 -26 -13 -15 -10 -14 10 3 32 29 31 28
12 28 -8 0 -13 -3 -10 -5z"/>
<path d="M1470 1660 c0 -5 5 -10 11 -10 5 0 7 5 4 10 -3 6 -8 10 -11 10 -2 0
-4 -4 -4 -10z"/>
<path d="M2635 2855 c-5 -2 -22 -6 -36 -9 -35 -8 -44 -32 -19 -53 10 -9 17
-20 14 -24 -3 -5 5 -26 16 -49 11 -22 18 -40 15 -40 -3 0 0 -10 7 -22 6 -13
13 -29 14 -36 5 -26 36 -63 51 -60 21 4 54 48 56 75 2 29 17 18 17 -11 0 -13
10 -31 23 -40 12 -9 16 -14 8 -10 -9 5 -12 3 -7 -4 9 -15 46 -16 46 -1 0 5 5
7 10 4 6 -4 9 -3 8 2 -1 4 3 18 10 30 7 12 11 26 11 30 -1 4 0 15 3 23 4 8 9
24 14 35 4 11 8 23 8 27 1 3 4 9 8 13 4 4 4 14 0 23 -5 15 -4 16 13 2 17 -14
18 -14 7 6 -9 17 -8 21 5 21 12 0 14 -10 10 -56 -2 -31 0 -66 4 -79 7 -17 6
-21 -3 -16 -8 5 -9 2 -5 -9 3 -9 2 -19 -3 -22 -30 -18 11 -55 60 -55 37 0 59
14 45 28 -4 4 -27 7 -51 7 -24 0 -44 3 -44 8 0 4 7 7 15 7 12 0 15 18 15 105
0 87 -3 105 -15 105 -8 0 -15 3 -15 8 0 4 23 7 50 7 28 0 50 -3 50 -7 0 -5 -7
-8 -15 -8 -12 0 -15 -18 -15 -105 0 -70 4 -105 11 -105 6 0 20 -12 32 -26 20
-25 22 -26 106 -20 109 8 92 8 189 0 45 -3 88 -2 95 3 7 5 55 6 107 3 83 -6
97 -4 111 11 9 10 20 15 25 11 5 -4 3 0 -4 9 -21 28 -22 55 -2 55 10 0 16 -5
13 -10 -4 -5 1 -7 11 -3 14 6 15 3 6 -14 -9 -16 -8 -26 5 -45 17 -26 46 -31
89 -14 16 6 27 6 31 0 8 -13 62 -13 70 1 10 15 -1 22 -35 22 -28 0 -41 11 -22
19 5 2 12 49 15 106 5 85 4 102 -8 102 -8 0 -15 4 -15 8 0 5 16 6 36 3 33 -6
37 -10 67 -83 32 -77 47 -102 47 -79 0 7 14 45 31 86 28 68 32 73 65 77 18 2
34 0 34 -4 0 -4 -7 -8 -15 -8 -12 0 -15 -18 -15 -105 0 -72 4 -105 11 -105 7
0 20 -9 29 -20 27 -31 116 -36 155 -10 17 11 26 20 22 20 -5 0 -2 7 6 15 9 8
17 19 19 25 1 5 24 10 50 11 29 2 49 7 52 16 6 15 26 18 26 2 0 -5 -6 -7 -12
-3 -9 5 -9 2 1 -9 11 -13 11 -17 1 -17 -8 0 -10 -3 -7 -6 3 -4 2 -15 -3 -25
-25 -46 108 -68 183 -30 31 16 39 17 43 6 8 -20 78 -29 103 -14 16 11 27 11
56 0 40 -14 75 -7 75 16 0 13 3 13 15 3 8 -7 15 -9 15 -4 0 5 5 1 11 -8 13
-23 81 -24 99 -3 12 14 15 14 30 0 39 -35 96 -5 85 45 -3 16 -2 30 2 33 14 9
45 -21 41 -40 -8 -35 27 -52 110 -51 42 0 83 5 90 10 15 13 16 48 1 48 -5 0
-7 5 -4 10 3 6 2 10 -3 10 -6 0 -8 9 -5 20 3 11 9 20 14 20 17 0 47 -43 42
-59 -4 -9 -3 -13 1 -9 5 4 21 -6 37 -23 17 -17 34 -26 43 -23 9 3 13 10 10 15
-3 5 0 9 6 9 6 0 8 5 5 10 -3 6 -2 10 4 10 9 0 6 107 -4 138 -3 6 0 12 5 12 6
0 10 -3 10 -7 0 -5 11 -8 24 -8 20 0 22 3 13 14 -9 12 -9 13 1 7 7 -4 12 -1
12 9 0 9 5 13 10 10 6 -4 7 -11 3 -18 -3 -6 -5 -35 -4 -64 2 -34 -3 -60 -11
-70 -11 -14 -11 -15 1 -9 10 7 12 3 6 -13 -4 -13 -1 -28 5 -36 16 -19 80 -19
105 -1 17 12 18 18 8 37 -13 26 -22 139 -11 139 3 0 4 10 1 23 -5 20 -4 20 16
-5 18 -23 25 -26 40 -16 10 6 18 16 18 22 0 6 3 18 7 26 3 8 -2 25 -12 37 -14
19 -27 23 -88 24 -40 1 -77 -2 -84 -6 -7 -4 -16 -2 -21 6 -6 11 -11 11 -20 2
-7 -7 -20 -9 -33 -4 -24 8 -33 8 -61 -2 -25 -9 -30 -46 -8 -62 13 -10 14 -15
4 -31 -7 -10 -10 -13 -8 -5 4 18 -68 94 -91 96 -10 0 -22 4 -28 8 -6 3 -21 -3
-33 -14 -17 -16 -20 -24 -10 -35 12 -15 20 -122 11 -162 -4 -21 -5 -22 -17 -5
-10 15 -37 83 -40 103 -5 26 -30 78 -37 74 -4 -3 -8 0 -8 6 0 6 -6 18 -14 25
-11 12 -17 10 -40 -14 -14 -15 -24 -30 -20 -34 3 -3 -1 -19 -10 -36 -9 -17
-23 -44 -31 -60 -8 -16 -15 -36 -15 -44 0 -8 -7 -20 -15 -27 -8 -7 -12 -17 -9
-22 4 -6 -3 -5 -15 1 -11 7 -21 14 -21 17 0 3 5 2 12 -2 7 -5 8 -3 2 7 -12 20
-15 49 -5 49 5 0 12 12 15 26 10 38 36 75 49 67 5 -3 7 -1 4 4 -4 6 0 16 8 23
16 14 9 40 -12 40 -8 0 -11 5 -7 12 4 6 3 8 -3 5 -5 -3 -22 -8 -38 -11 -33 -6
-47 -23 -41 -48 2 -10 0 -18 -5 -18 -4 0 -6 -8 -3 -17 5 -15 4 -16 -5 -3 -6 8
-8 23 -5 34 4 13 3 16 -6 11 -9 -5 -11 -4 -6 4 20 31 -81 55 -123 29 -15 -9
-24 -10 -29 -2 -4 5 -44 11 -89 13 -70 2 -83 0 -83 -13 0 -19 0 -19 -36 -2
-49 23 -78 30 -69 16 6 -9 4 -11 -4 -6 -20 12 -80 9 -97 -5 -10 -9 -13 -21 -8
-38 12 -46 10 -99 -3 -94 -7 3 -13 8 -13 13 0 12 -90 6 -98 -7 -5 -7 -13 -9
-22 -3 -11 7 -12 13 -2 35 15 32 16 75 1 75 -5 0 -8 4 -4 9 3 5 0 13 -6 17 -8
5 -10 2 -5 -7 5 -9 3 -8 -6 2 -13 15 -88 23 -98 11 -3 -4 -15 -13 -27 -20 -20
-10 -26 -9 -43 8 -16 16 -25 18 -39 11 -10 -6 -21 -7 -25 -4 -3 3 -6 1 -6 -5
0 -7 -7 -12 -15 -12 -8 0 -15 -9 -15 -19 0 -11 -5 -23 -10 -26 -6 -4 -8 -11
-5 -16 4 -5 1 -9 -4 -9 -6 0 -10 -4 -8 -9 1 -5 -1 -9 -5 -10 -21 -3 -28 0 -28
10 0 5 4 8 9 4 6 -3 -1 15 -15 39 -27 48 -42 57 -87 52 -37 -4 -52 -20 -41
-43 14 -31 12 -170 -2 -170 -7 0 -12 3 -11 6 0 3 -9 25 -21 47 -11 23 -19 43
-17 45 2 2 -9 29 -23 59 -19 39 -33 55 -47 55 -22 1 -44 -29 -45 -58 0 -12 -4
-16 -12 -11 -7 4 -10 4 -6 -1 4 -4 1 -20 -7 -35 -8 -15 -11 -30 -8 -33 3 -4
-1 -9 -10 -13 -9 -3 -14 -14 -12 -25 2 -11 0 -17 -4 -14 -5 2 -11 -4 -14 -15
-3 -11 -10 -20 -17 -20 -6 0 -8 5 -4 11 4 7 6 46 5 87 -2 49 2 77 9 82 20 12
-7 50 -35 50 -13 0 -32 3 -42 6 -15 5 -15 4 -3 -5 12 -9 10 -11 -11 -11 -27 0
-46 -24 -29 -35 6 -3 9 -37 8 -75 -2 -55 -5 -67 -15 -58 -10 8 -18 4 -34 -16
-11 -14 -28 -26 -38 -26 -15 0 -17 11 -18 77 -1 43 3 86 9 96 12 23 -8 50 -34
44 -10 -3 -18 -2 -18 2 0 4 -13 6 -30 3 -36 -5 -57 -27 -42 -45 6 -6 12 -40
14 -75 3 -50 1 -61 -10 -57 -8 3 -30 -9 -49 -26 -19 -16 -38 -28 -41 -25 -9
10 -4 153 6 173 12 21 -3 57 -19 48 -5 -4 -9 -2 -9 2 0 5 -18 7 -40 5 -22 -2
-40 -8 -40 -13 0 -4 -16 -1 -36 7 -25 11 -44 12 -63 6 -14 -5 -37 -6 -51 -2
-32 8 -67 -7 -73 -31 -3 -11 -2 -19 2 -19 13 0 10 -39 -4 -50 -10 -9 -15 -5
-20 19 -3 17 -4 35 0 40 3 6 -4 20 -16 32 -17 17 -28 20 -57 14 -21 -3 -42
-12 -48 -20 -8 -11 -12 -10 -22 6 -11 18 -24 22 -47 14z m45 -37 c0 -3 -6 -8
-12 -10 -10 -4 -7 -24 12 -81 14 -42 28 -73 31 -69 3 4 14 29 23 55 19 52 15
97 -9 97 -8 0 -15 3 -15 8 0 4 22 7 50 7 27 0 50 -3 50 -7 0 -5 -7 -8 -15 -8
-8 0 -15 -1 -15 -2 0 -2 13 -38 29 -82 l28 -78 26 75 c32 88 31 87 12 87 -8 0
-15 4 -15 8 0 10 67 8 77 -2 3 -3 -1 -6 -10 -6 -15 0 -21 -12 -77 -167 -12
-35 -25 -61 -29 -59 -3 2 -17 36 -31 75 -13 39 -27 71 -30 71 -3 0 -18 -34
-34 -75 -16 -42 -32 -72 -36 -68 -4 4 -15 33 -25 63 -37 117 -57 160 -71 160
-8 0 -13 3 -11 8 6 9 97 10 97 0z m490 2 c0 -5 -7 -10 -15 -10 -12 0 -15 -18
-15 -105 l0 -105 35 0 c34 0 41 5 70 45 14 19 14 17 8 -15 -3 -19 -8 -37 -10
-39 -7 -9 -173 -8 -173 0 0 5 7 9 15 9 12 0 15 18 15 105 0 93 -2 105 -17 107
-10 0 5 4 32 8 28 4 51 8 53 8 1 1 2 -2 2 -8z m187 -11 c-14 -8 -17 -25 -17
-110 l0 -100 42 3 c38 3 45 7 60 38 l17 35 0 -30 c1 -53 -10 -60 -99 -60 -44
0 -80 3 -80 7 0 4 5 8 10 8 16 0 13 210 -2 212 -7 0 7 4 32 7 51 7 63 4 37
-10z m211 3 c-16 -3 -18 -17 -18 -108 0 -86 3 -104 15 -104 8 0 15 -4 15 -8 0
-5 -22 -8 -50 -8 -27 0 -50 3 -50 8 0 4 7 8 15 8 12 0 15 18 15 105 0 88 -2
105 -16 105 -8 0 -13 3 -10 8 2 4 26 5 53 3 26 -3 40 -6 31 -9z m192 -92 c23
-58 48 -110 56 -116 22 -17 18 -19 -36 -20 -28 0 -50 3 -50 8 0 4 7 8 15 8 18
0 19 11 3 45 -9 20 -18 25 -50 25 -32 0 -40 -4 -48 -26 -14 -35 -13 -44 5 -44
8 0 15 -4 15 -9 0 -5 -18 -8 -40 -7 -32 0 -38 3 -26 11 8 6 28 45 45 86 47
118 62 151 66 148 2 -2 22 -51 45 -109z m508 104 c24 -5 31 -12 34 -35 6 -41
-3 -45 -18 -9 -11 25 -19 30 -48 30 -26 0 -36 -5 -41 -21 -8 -25 0 -35 62 -68
42 -23 48 -30 51 -63 2 -27 -2 -41 -19 -57 -24 -22 -41 -25 -100 -15 -30 5
-36 10 -32 25 3 11 0 25 -6 32 -8 10 -7 14 3 14 8 0 17 -11 20 -24 7 -24 38
-37 77 -31 19 2 24 9 24 33 0 25 -8 34 -55 60 -30 17 -56 39 -58 49 -6 31 7
62 30 74 28 13 37 14 76 6z m368 -26 c21 -21 12 -64 -17 -73 -20 -7 -19 -8 10
-26 41 -25 43 -71 5 -96 -28 -18 -174 -28 -174 -11 0 4 7 8 15 8 12 0 15 18
15 105 0 88 -2 105 -16 105 -8 0 -13 3 -11 8 10 14 155 -2 173 -20z m334 12
c-12 -7 -11 -16 9 -52 35 -63 35 -63 62 -7 17 38 21 53 11 57 -24 8 -11 17 23
16 34 -1 64 -14 33 -14 -9 0 -32 -27 -52 -61 -27 -45 -36 -72 -36 -105 0 -32
4 -44 15 -44 8 0 15 -3 15 -7 0 -5 -22 -8 -50 -8 -27 0 -50 3 -50 8 0 4 7 7
15 7 11 0 15 11 15 41 0 48 -62 168 -88 171 -10 0 6 4 33 7 55 7 67 4 45 -9z
m280 -90 c23 -58 48 -110 56 -116 23 -18 17 -22 -31 -20 -42 2 -79 16 -42 16
20 0 21 10 5 45 -10 23 -17 26 -52 23 -34 -3 -41 -7 -49 -32 -7 -22 -7 -31 2
-34 23 -8 10 -18 -25 -18 -29 0 -33 2 -20 12 9 6 27 40 40 75 32 85 67 161 71
157 2 -2 22 -50 45 -108z m310 98 c0 -3 -4 -8 -9 -10 -5 -1 -11 -52 -14 -111
-2 -59 -7 -110 -10 -113 -2 -3 -37 41 -77 96 -39 56 -73 100 -74 98 0 -2 0
-42 2 -90 3 -68 7 -88 18 -88 8 0 14 -4 14 -9 0 -4 -19 -8 -42 -8 -35 0 -39 2
-25 12 14 10 17 30 17 113 0 87 -2 101 -17 105 -10 3 -1 5 19 6 34 1 39 -3 89
-71 28 -40 56 -77 60 -82 5 -6 9 23 9 67 0 62 -3 77 -15 77 -8 0 -15 4 -15 8
0 5 16 8 35 8 19 -1 35 -4 35 -8z m-710 -18 c11 -11 20 -28 20 -37 0 -20 -28
-53 -46 -53 -15 0 17 -57 54 -97 28 -30 23 -38 -15 -26 -19 6 -36 25 -54 59
-14 27 -33 50 -42 52 -14 3 -17 -5 -17 -47 0 -39 4 -51 15 -51 8 0 15 -4 15
-8 0 -5 -22 -8 -50 -8 -27 0 -50 3 -50 8 0 4 7 8 15 8 12 0 15 18 15 104 0 91
-2 105 -17 109 -10 3 17 5 60 6 65 1 80 -2 97 -19z m930 8 c0 -7 3 -23 6 -35
9 -34 -10 -28 -23 7 -9 23 -18 30 -37 30 l-26 0 0 -105 c0 -87 3 -105 15 -105
8 0 15 -3 15 -7 0 -5 -23 -8 -50 -9 -28 0 -50 3 -50 8 0 4 7 8 15 8 12 0 15
18 15 105 0 99 -1 105 -20 105 -12 0 -28 -13 -40 -32 l-20 -33 0 38 0 37 100
0 c73 0 100 -3 100 -12z m-2715 -29 c-5 -16 -4 -19 5 -14 9 6 10 3 3 -9 -5 -9
-6 -42 -3 -74 5 -52 3 -58 -11 -55 -15 4 -17 16 -13 76 2 40 4 78 4 85 0 6 5
12 11 12 6 0 8 -9 4 -21z m-344 -17 c6 -16 5 -20 -6 -16 -16 6 -29 47 -13 42
6 -2 15 -14 19 -26z m1526 22 c-3 -3 6 -17 21 -31 l27 -25 -32 22 c-33 22 -43
40 -21 40 6 0 9 -3 5 -6z m660 -40 c-4 -4 6 -18 21 -32 15 -13 21 -21 15 -18
-7 4 -13 3 -13 -3 0 -5 6 -14 13 -18 6 -4 13 -16 13 -25 1 -10 -3 -15 -9 -11
-6 4 -8 0 -4 -11 4 -11 3 -15 -4 -10 -8 4 -9 -1 -4 -15 7 -22 6 -22 -14 -5
-11 10 -18 21 -15 26 3 4 1 8 -5 8 -5 0 -16 14 -25 30 -13 28 -13 33 2 60 9
17 21 30 26 30 5 0 6 -3 3 -6z m-228 -20 c4 3 8 -1 8 -9 0 -8 -4 -15 -9 -15
-4 0 -8 5 -8 11 0 5 -4 7 -10 4 -6 -4 -7 1 -3 11 4 11 8 13 11 6 2 -7 7 -10
11 -8z m-499 -47 c0 -1 -11 -3 -25 -3 -22 -2 -25 2 -25 29 l0 30 25 -27 c14
-15 25 -28 25 -29z m260 8 c0 -11 -12 -15 -45 -15 -33 0 -45 4 -45 15 0 11 12
15 45 15 33 0 45 -4 45 -15z m-213 -33 c18 -14 19 -19 8 -30 -12 -10 -16 -8
-21 13 -3 14 -10 22 -15 19 -5 -3 -9 0 -9 5 0 15 12 13 37 -7z m564 -39 c13
-16 12 -17 -3 -4 -17 13 -22 21 -14 21 2 0 10 -8 17 -17z"/>
<path d="M3678 2720 l-17 -40 36 0 c28 0 34 3 29 16 -3 9 -9 27 -12 40 -9 34
-16 30 -36 -16z"/>
<path d="M4530 2765 c0 -43 1 -45 30 -45 22 0 33 6 41 24 16 35 -3 66 -41 66
-29 0 -30 -2 -30 -45z"/>
<path d="M4530 2655 l0 -55 35 0 c25 0 37 6 45 21 16 30 4 68 -26 79 -48 19
-54 14 -54 -45z m60 -11 c0 -8 -6 -14 -13 -14 -7 0 -13 8 -13 19 0 11 5 17 13
14 7 -3 13 -11 13 -19z"/>
<path d="M5169 2725 l-17 -45 35 0 c31 0 34 2 27 23 -11 36 -23 67 -26 67 -2
0 -10 -20 -19 -45z"/>
<path d="M4750 2759 l0 -50 33 3 c29 3 32 6 35 42 4 42 -8 56 -45 56 -21 0
-23 -5 -23 -51z"/>
<path d="M5137 2793 c-4 -3 -7 -11 -7 -17 0 -6 5 -5 12 2 6 6 9 14 7 17 -3 3
-9 2 -12 -2z"/>
<path d="M3890 2693 c0 -63 4 -93 11 -93 7 0 18 -8 26 -17 14 -17 14 -17 9 2
-5 18 -4 18 13 -3 15 -17 26 -21 46 -16 15 4 29 13 32 20 3 8 11 14 18 14 10
0 14 24 17 90 2 49 0 86 -3 82 -3 -4 -21 -45 -39 -92 -31 -82 -50 -117 -50
-93 0 6 -18 53 -40 104 l-39 94 -1 -92z"/>
<path d="M3617 2723 c-10 -9 -9 -23 1 -23 5 0 9 7 9 15 0 17 -1 18 -10 8z"/>
<path d="M4048 2583 c-10 -2 -18 -8 -18 -13 0 -14 33 -19 75 -11 l40 8 -28 11
c-29 12 -39 13 -69 5z"/>
<path d="M2663 2480 c-41 -25 -55 -52 -48 -94 6 -27 2 -38 -16 -55 -13 -12
-24 -28 -26 -36 -2 -8 -5 -23 -7 -32 -2 -10 4 -27 13 -37 13 -16 13 -18 1 -12
-8 4 -2 -3 14 -15 33 -26 49 -32 89 -31 43 1 57 5 57 14 0 5 4 7 9 4 21 -13
107 -14 124 -1 24 17 14 55 -14 55 -24 0 -25 32 -2 59 9 11 18 30 19 43 2 13
0 17 -2 11 -3 -7 -12 -13 -20 -13 -7 0 -23 -18 -35 -41 l-20 -41 22 -24 c15
-16 29 -22 43 -19 21 6 21 6 2 -9 -39 -31 -62 -21 -135 64 -56 65 -60 68 -75
51 -45 -49 15 -133 73 -102 28 15 36 14 21 -4 -17 -21 -75 -29 -109 -15 -58
24 -61 100 -5 131 17 9 23 18 18 28 -4 9 -9 30 -11 47 -4 25 0 35 18 48 32 22
75 20 99 -4 26 -26 25 -42 -3 -68 -29 -28 -58 -31 -34 -4 37 40 11 95 -33 72
-32 -17 -20 -49 52 -130 43 -49 47 -51 57 -32 14 26 14 52 1 52 -5 0 -10 5
-10 10 0 6 10 8 23 5 12 -3 31 0 41 8 18 13 18 14 -3 20 -11 3 -19 1 -15 -4 8
-14 -6 -11 -22 5 -8 8 -14 22 -14 32 0 10 -7 26 -17 36 -13 14 -13 18 -2 18
19 1 -49 30 -70 30 -9 0 -30 -9 -48 -20z m33 -215 c-3 -8 0 -16 7 -19 7 -2 8
-5 2 -5 -18 -1 -35 15 -40 37 -3 19 -1 21 16 11 11 -6 18 -17 15 -24z"/>
<path d="M2675 2270 c3 -5 8 -10 11 -10 2 0 4 5 4 10 0 6 -5 10 -11 10 -5 0
-7 -4 -4 -10z"/>
<path d="M3030 2466 c-36 -16 -70 -51 -70 -71 0 -25 22 -85 32 -85 4 0 5 -6 2
-14 -3 -8 -13 -13 -22 -10 -9 3 -7 -1 5 -7 12 -6 24 -22 27 -36 15 -57 111
-53 104 5 -2 21 -14 33 -52 53 -55 30 -66 43 -66 80 0 33 32 62 67 61 83 -2
83 -2 83 -44 0 -24 -4 -37 -10 -33 -5 3 -10 12 -10 20 0 38 -65 60 -90 30 -18
-21 -3 -51 32 -66 49 -20 88 -58 88 -85 0 -32 -42 -74 -73 -74 -52 0 -87 12
-87 30 0 25 -10 50 -21 50 -12 0 -11 -57 1 -79 15 -30 103 -37 150 -12 30 15
39 17 43 7 9 -22 56 -29 83 -11 25 16 48 20 40 7 -6 -11 25 -9 43 3 11 6 12 4
5 -6 -4 -8 6 -3 23 11 30 24 31 28 34 112 2 48 1 84 -2 80 -3 -4 -21 -45 -39
-92 -18 -47 -36 -88 -40 -93 -3 -4 -24 37 -45 90 -21 54 -49 108 -62 120 -30
29 -29 32 11 30 33 -2 35 -4 67 -89 19 -48 36 -88 39 -88 3 0 17 33 32 73 16
39 31 77 35 83 11 16 73 29 73 15 0 -6 -7 -11 -15 -11 -12 0 -15 -18 -15 -105
0 -87 3 -105 15 -105 8 0 15 -5 15 -11 0 -5 -12 -9 -27 -8 -16 1 -39 1 -53 1
-22 -2 -23 -3 -8 -18 13 -13 24 -14 59 -7 25 5 58 6 76 1 25 -7 42 -4 70 11
21 11 32 20 26 21 -7 0 -13 5 -13 11 0 6 9 8 23 4 19 -5 20 -4 4 5 -9 6 -20 9
-25 7 -4 -3 -8 27 -9 65 -1 50 2 67 9 60 6 -6 23 -9 37 -6 26 5 26 5 25 -49
-1 -30 -5 -60 -8 -66 -4 -6 -4 -11 0 -11 3 0 2 -6 -4 -13 -19 -23 2 -34 61
-35 45 0 59 4 67 18 7 13 6 20 -1 22 -9 3 -23 168 -14 168 1 0 12 -9 25 -20
18 -16 25 -17 32 -8 6 10 8 10 9 -2 1 -19 -2 -119 -4 -145 -3 -26 44 -49 84
-40 17 4 28 9 25 13 -3 3 -1 12 6 19 9 11 9 17 -3 24 -8 5 -9 9 -4 9 6 0 3 5
-5 10 -12 8 -12 10 -1 10 11 0 11 3 0 17 -10 11 -10 14 -1 9 6 -4 12 -3 12 1
0 5 8 9 18 9 13 0 18 -8 17 -28 0 -15 -3 -28 -6 -28 -18 0 -1 -46 21 -57 30
-15 60 -17 60 -3 0 5 7 7 15 4 8 -4 16 -2 16 2 6 36 5 53 0 49 -8 -4 -6 169 2
202 6 23 -8 32 -60 38 -32 3 -71 -28 -57 -46 6 -8 11 -26 12 -41 1 -22 -3 -28
-18 -28 -11 0 -20 3 -21 8 0 4 -2 16 -4 27 -2 10 1 25 7 33 19 23 -15 46 -64
43 -24 -2 -47 -2 -53 -2 -31 2 -137 3 -185 3 -30 -1 -68 0 -85 2 -16 2 -40 -2
-53 -7 -17 -8 -29 -8 -43 1 -14 9 -19 9 -19 1 0 -8 -4 -9 -13 0 -11 8 -19 7
-35 -7 -23 -20 -46 -69 -43 -89 1 -7 -8 -13 -19 -13 -12 0 -19 4 -15 9 7 12
-15 61 -27 61 -5 0 -7 4 -4 9 15 23 -65 51 -90 30 -8 -7 -25 -8 -46 -3 -18 4
-37 7 -41 6 -4 -1 -16 2 -25 7 -10 5 -26 4 -42 -3z m550 -38 c0 -4 -7 -8 -15
-8 -12 0 -15 -18 -15 -105 0 -87 3 -105 15 -105 8 0 15 -4 15 -8 0 -5 -23 -9
-51 -9 -43 0 -49 2 -35 12 24 18 24 202 -1 221 -16 11 -11 13 35 12 28 -1 52
-5 52 -10z m220 -33 l-1 -40 -14 33 c-11 24 -20 32 -40 32 l-25 0 0 -105 c0
-87 3 -105 15 -105 8 0 15 -4 15 -8 0 -5 -22 -9 -50 -9 -27 0 -50 3 -50 8 0 5
7 9 15 9 12 0 15 18 15 105 0 97 -1 105 -19 105 -11 0 -29 -12 -40 -27 l-20
-28 -1 31 c0 17 2 33 4 35 3 3 48 5 100 5 l96 0 0 -41z m120 33 c0 -4 -7 -8
-15 -8 -11 0 -15 -12 -15 -50 l0 -49 55 0 55 1 0 44 c0 30 -5 46 -15 50 -29
11 -15 21 30 21 45 0 59 -10 30 -21 -12 -4 -15 -26 -15 -106 0 -82 3 -100 15
-100 8 0 15 -4 15 -8 0 -5 -20 -9 -45 -9 -43 0 -60 10 -32 20 7 2 12 22 12 50
l1 47 -53 0 -53 0 0 -50 c0 -38 4 -50 15 -50 8 0 15 -4 15 -8 0 -5 -23 -9 -52
-9 -44 -1 -49 1 -35 12 24 18 25 202 1 219 -13 10 -6 12 35 12 28 0 51 -3 51
-8z m-850 -34 c0 -8 4 -13 9 -10 5 3 14 -1 21 -9 9 -10 9 -15 1 -15 -6 0 -11
5 -11 10 0 6 -3 9 -7 9 -20 -3 -30 2 -30 16 0 8 4 15 9 15 4 0 8 -7 8 -16z
m105 -45 c0 -49 0 -50 -17 -28 -20 24 -22 35 -8 44 6 3 10 16 10 27 0 12 3 18
7 14 4 -4 8 -30 8 -57z m305 -35 c0 -52 -4 -93 -9 -90 -4 3 -7 45 -6 93 3 96
3 93 10 93 3 0 5 -43 5 -96z m-260 -21 c0 -67 3 -83 15 -83 8 0 15 -4 15 -10
0 -5 -19 -10 -42 -10 -38 1 -41 2 -25 14 14 11 17 30 17 107 0 64 3 89 10 79
5 -8 10 -52 10 -97z m425 77 c3 -5 1 -10 -4 -10 -6 0 -11 5 -11 10 0 6 2 10 4
10 3 0 8 -4 11 -10z m-630 -79 c-7 -12 7 -21 38 -23 14 -1 23 -6 21 -10 -3 -4
0 -8 6 -8 6 0 9 -4 6 -9 -3 -5 -18 -8 -33 -8 -16 0 -22 2 -15 4 16 6 15 23 -2
23 -17 0 -38 24 -29 33 9 10 15 8 8 -2z"/>
<path d="M2588 2078 c-30 -10 -36 -29 -15 -46 14 -12 206 -14 1949 -16 828 -1
1244 2 1240 9 -3 6 3 3 13 -5 11 -9 16 -10 11 -2 -4 7 -1 12 8 12 22 0 20 36
-1 45 -28 11 -3173 14 -3205 3z m3212 -28 c0 -7 -543 -10 -1610 -10 -1067 0
-1610 3 -1610 10 0 7 543 10 1610 10 1067 0 1610 -3 1610 -10z"/>
<path d="M2584 1923 c-6 -10 -8 -26 -4 -37 3 -10 3 -41 0 -68 -6 -48 0 -65 20
-53 15 9 13 132 -2 139 -7 3 9 4 35 2 46 -4 47 -3 31 15 -21 24 -66 25 -80 2z"/>
<path d="M2761 1922 c-5 -10 -6 -24 -2 -32 5 -8 5 -44 1 -80 -3 -36 -3 -67 2
-68 4 -2 6 -7 4 -11 -3 -4 22 -8 56 -8 66 -1 98 18 98 59 0 20 2 19 28 -10 16
-18 34 -32 41 -32 7 0 10 -4 7 -8 -3 -5 15 -8 40 -8 24 1 44 4 44 7 0 4 12 10
27 14 21 5 24 8 12 16 -11 7 -11 9 0 9 9 0 11 8 7 25 -6 23 -5 24 13 14 17
-11 17 -15 5 -44 l-13 -31 45 -3 c25 -1 44 2 44 9 0 5 -3 9 -7 9 -5 -1 -21 -1
-37 0 -22 1 -26 4 -18 14 6 7 24 42 39 78 15 36 32 67 37 68 5 1 20 -26 33
-60 13 -35 31 -72 41 -82 17 -19 16 -19 -30 -16 -37 3 -45 1 -35 -8 16 -16 67
-25 67 -12 0 6 4 8 9 5 5 -4 12 0 14 6 4 9 8 9 14 3 11 -13 29 -18 86 -20 40
-1 52 3 67 23 18 22 18 26 3 48 -18 28 -20 29 -41 8 -14 -15 -16 -15 -24 6 -7
18 -6 39 4 88 4 23 -17 42 -47 42 -38 0 -45 -12 -43 -77 0 -22 -3 -47 -7 -54
-5 -7 -4 -10 3 -5 6 4 10 -1 9 -13 -1 -15 -4 -17 -14 -10 -7 6 -16 8 -22 5 -5
-3 -12 1 -15 10 -9 24 -7 31 4 14 5 -8 10 -10 10 -4 0 6 -6 17 -14 23 -8 7
-17 26 -20 44 -5 29 -35 67 -52 67 -11 0 -43 -45 -44 -62 0 -9 -4 -20 -10 -23
-5 -3 -10 -15 -10 -25 0 -11 -6 -17 -15 -16 -16 2 -44 26 -31 26 5 0 4 6 -2
13 -6 7 -9 22 -8 32 8 50 -62 71 -127 40 -38 -18 -68 -65 -60 -94 4 -14 1 -21
-10 -21 -8 0 -17 -13 -20 -30 -6 -30 -7 -30 -74 -30 -51 1 -64 3 -50 11 13 8
17 24 17 74 0 41 -4 65 -12 68 -7 3 15 6 50 6 58 1 62 0 62 -21 -1 -21 -2 -22
-14 -5 -7 9 -25 17 -40 17 -22 0 -26 -4 -26 -30 0 -23 4 -30 20 -30 10 0 24 8
29 18 8 13 10 9 10 -23 0 -32 -2 -36 -10 -22 -5 9 -19 17 -29 17 -15 0 -20 -7
-20 -29 0 -35 12 -45 44 -37 28 7 51 53 36 71 -8 10 -6 17 7 27 23 17 23 38 1
61 -25 24 -123 24 -137 -1z m317 -12 c6 0 12 -8 12 -17 0 -9 8 -26 18 -37 15
-19 15 -19 0 -7 -9 7 -21 10 -26 7 -5 -3 -8 5 -8 17 1 17 -6 23 -27 25 -34 4
-53 -10 -60 -45 -11 -56 35 -112 72 -88 15 8 14 38 -1 53 -9 9 -5 12 21 12 23
0 30 -3 24 -12 -4 -7 -6 -23 -5 -35 3 -18 -3 -23 -34 -29 -73 -14 -123 31
-109 97 8 35 59 72 90 64 11 -2 26 -5 33 -5z m345 -7 c-9 -3 -13 -28 -13 -74
l0 -69 28 6 c15 4 32 14 39 23 11 14 12 12 13 -11 0 -28 0 -28 -67 -27 -38 0
-62 3 -55 6 8 3 12 28 12 73 0 45 -4 70 -12 73 -7 3 5 5 27 5 22 0 34 -2 28
-5z m-363 -49 c0 -8 -7 -14 -15 -14 -17 0 -20 -21 -4 -37 7 -7 6 -12 -5 -16
-11 -4 -13 -1 -9 10 4 10 2 14 -4 10 -7 -4 -10 5 -9 23 0 17 4 30 9 30 4 0 6
4 3 9 -4 5 3 7 14 4 11 -3 20 -12 20 -19z m280 -84 c0 -5 -2 -10 -4 -10 -3 0
-8 5 -11 10 -3 6 -1 10 4 10 6 0 11 -4 11 -10z"/>
<path d="M3638 1908 c-35 -32 -36 -35 -29 -80 8 -49 34 -88 58 -88 8 0 12 -4
9 -9 -3 -4 13 -8 35 -7 44 2 117 52 100 69 -5 5 -7 16 -4 23 3 8 1 14 -4 14
-16 0 -33 -23 -33 -46 0 -41 -77 -48 -115 -9 -42 41 -30 102 26 131 41 21 85
11 92 -22 5 -29 -8 -33 -16 -4 -7 29 -61 27 -81 -2 -34 -48 -3 -123 47 -116
24 3 35 34 18 51 -14 14 -34 -10 -23 -28 3 -5 -2 -4 -11 4 -9 7 -15 17 -12 21
3 5 -1 11 -7 14 -7 2 -4 4 7 4 62 -3 95 3 95 17 0 8 5 15 11 15 6 0 7 5 2 13
-4 6 -8 18 -9 24 -4 27 -34 43 -76 43 -36 0 -51 -6 -80 -32z m99 -43 c0 -8 -4
-12 -9 -9 -4 3 -8 0 -8 -5 0 -6 -6 -11 -13 -11 -8 0 -14 7 -14 15 0 8 3 12 7
10 3 -2 12 0 20 6 8 5 15 9 16 9 0 0 1 -7 1 -15z"/>
<path d="M3840 1925 c0 -11 12 -15 49 -15 32 0 55 -6 65 -16 21 -20 20 -30 -4
-54 -19 -19 -19 -20 14 -55 32 -33 32 -35 10 -35 -15 0 -29 12 -44 35 -12 19
-26 35 -31 35 -14 0 -11 -58 4 -63 6 -3 -5 -6 -25 -6 -25 -1 -38 -6 -38 -15 0
-14 46 -16 68 -2 6 4 20 2 31 -4 24 -13 64 -13 56 -1 -3 5 -1 12 4 16 12 7 -6
65 -20 65 -5 0 -9 7 -9 16 0 8 5 12 10 9 6 -3 11 -1 11 4 1 6 2 17 3 24 3 13
-21 67 -30 67 -3 0 -2 -6 2 -12 4 -7 -2 -5 -13 5 -26 22 -113 24 -113 2z"/>
<path d="M4066 1924 c-3 -9 -11 -12 -18 -8 -7 4 -10 4 -6 -1 4 -4 0 -13 -8
-20 -19 -14 -28 -58 -22 -110 1 -8 4 -12 8 -10 9 6 47 -35 40 -44 -10 -12 65
-9 96 4 21 8 38 27 50 54 20 42 40 56 31 20 -3 -12 2 -28 13 -39 10 -10 16
-21 13 -24 -4 -3 3 -6 15 -6 12 0 22 -5 22 -11 0 -16 59 -3 81 17 17 15 19 15
34 0 9 -9 21 -14 26 -11 5 4 9 3 9 -2 0 -4 16 -9 35 -10 19 -1 35 3 35 8 0 5
7 9 16 7 10 -2 19 4 21 12 3 11 2 11 -4 3 -6 -9 -12 -7 -22 8 -9 16 -10 19 0
13 9 -5 10 -2 5 11 -5 15 -4 16 9 5 12 -10 15 -10 15 4 0 10 5 14 10 11 6 -3
10 1 10 9 0 9 5 15 11 14 6 -2 13 9 16 24 6 43 -45 88 -99 88 -24 0 -48 -4
-55 -8 -15 -10 -24 -60 -12 -68 5 -3 7 -9 4 -13 -2 -5 -5 -31 -6 -60 -2 -49
-3 -50 -20 -35 -10 9 -17 19 -15 23 11 18 15 135 5 147 -15 18 -44 18 -59 -1
-12 -14 -15 -14 -30 0 -22 20 -57 19 -85 -4 -18 -13 -21 -21 -13 -29 7 -7 13
-22 15 -34 3 -23 3 -23 -17 2 -11 14 -24 30 -29 36 -6 7 -7 15 -3 20 4 4 1 4
-6 0 -7 -4 -15 -1 -18 8 -4 11 -19 16 -49 16 -30 0 -45 -5 -49 -16z m84 -19
c16 -8 34 -25 41 -36 24 -47 -22 -119 -76 -119 -73 0 -104 94 -49 145 31 29
44 30 84 10z m153 -2 c-14 -5 -18 -100 -5 -119 11 -17 35 -22 55 -12 13 7 17
22 17 68 0 33 -4 60 -10 60 -5 0 -10 4 -10 8 0 5 15 6 33 4 17 -3 26 -7 20 -9
-8 -3 -13 -24 -13 -57 0 -64 -20 -96 -61 -96 -47 0 -69 31 -69 95 0 30 -4 55
-10 55 -5 0 -10 4 -10 8 0 4 17 6 38 3 20 -2 31 -6 25 -8z m265 -6 c17 -11 15
-52 -3 -67 -8 -7 -26 -13 -40 -14 -20 -1 -25 -6 -25 -28 0 -14 6 -29 13 -31 6
-3 -6 -5 -28 -5 -22 0 -34 2 -27 5 15 6 17 143 2 143 -5 0 -10 4 -10 8 0 10
99 0 118 -11z m-228 -12 c4 3 10 -4 13 -15 3 -11 1 -23 -4 -26 -6 -3 -7 -14
-4 -25 5 -13 2 -19 -10 -19 -9 0 -13 5 -10 10 4 6 2 17 -5 25 -7 8 -7 16 -1
19 5 3 7 16 5 29 -2 12 -2 16 2 9 3 -6 9 -10 14 -7z"/>
<path d="M4082 1888 c-29 -29 -6 -128 29 -128 33 0 49 22 49 68 0 52 -12 72
-45 72 -12 0 -26 -5 -33 -12z m48 -33 c7 -9 9 -22 5 -32 -5 -10 -7 -22 -6 -26
1 -5 -6 -7 -16 -5 -12 2 -18 13 -18 33 -1 48 11 58 35 30z"/>
<path d="M4500 1866 c0 -30 4 -36 20 -36 40 0 36 60 -4 68 -12 3 -16 -4 -16
-32z"/>
<path d="M4776 1924 c-12 -11 -13 -20 -6 -33 5 -10 8 -20 6 -22 -3 -2 -5 -26
-7 -54 -2 -27 -8 -54 -13 -58 -7 -5 -3 -6 7 -3 10 3 23 6 28 6 14 0 11 137 -3
143 -7 3 5 5 27 5 22 0 34 -2 28 -5 -9 -3 -13 -28 -13 -75 0 -68 1 -70 23 -64
12 3 25 6 30 6 4 0 7 7 7 15 0 8 5 15 11 15 6 0 9 -10 7 -22 -3 -20 -10 -24
-63 -28 -75 -6 -83 -26 -10 -23 62 1 80 10 87 40 7 26 -15 63 -26 44 -4 -6
-12 -9 -17 -6 -5 4 -9 1 -9 -6 0 -7 -3 -9 -7 -5 -10 10 -13 38 -5 50 9 15 2
68 -10 84 -14 17 -53 15 -72 -4z"/>
<path d="M4951 1931 c-11 -7 -5 -11 22 -16 19 -4 42 -4 49 0 7 3 5 0 -4 -8
-14 -11 -18 -29 -18 -81 0 -63 1 -66 24 -66 14 0 32 10 40 22 l16 22 0 -27 c0
-27 0 -27 -72 -27 -57 0 -69 -3 -60 -12 7 -7 39 -13 72 -14 53 0 60 2 71 25 8
14 15 28 16 30 2 3 17 -10 33 -27 27 -30 33 -32 77 -27 27 4 53 13 61 22 19
26 15 61 -10 74 -13 6 -20 8 -16 4 11 -12 -11 -35 -33 -35 -31 0 -40 78 -10
88 8 3 11 0 7 -7 -5 -7 -1 -9 8 -5 9 3 16 2 16 -4 0 -16 33 -24 42 -10 13 21
9 55 -8 72 -17 18 -104 23 -104 6 0 -5 -6 -10 -14 -10 -7 0 -20 -8 -27 -17
-12 -14 -12 -16 1 -9 8 4 7 1 -3 -7 -10 -8 -19 -24 -20 -35 0 -11 -5 -18 -9
-16 -14 9 -9 -9 9 -28 9 -10 11 -18 6 -18 -6 0 -13 7 -17 15 -7 19 -21 19 -40
0 -20 -21 -25 -9 -21 55 1 30 -2 61 -7 68 -12 14 -56 16 -77 3z m307 -21 c7 0
12 -12 11 -27 l0 -28 -16 23 c-36 52 -102 6 -89 -63 8 -43 38 -62 72 -46 13 6
24 15 24 21 0 5 4 10 10 10 11 0 1 -32 -14 -42 -24 -17 -77 -8 -101 17 -55 54
-3 156 70 140 11 -3 26 -5 33 -5z"/>
<path d="M3820 1904 c0 -8 5 -25 11 -36 7 -12 7 -18 1 -14 -11 7 -11 -12 1
-31 6 -9 2 -13 -10 -13 -13 0 -15 -2 -5 -9 9 -5 11 -17 6 -37 l-7 -29 22 19
c30 27 31 135 1 154 -17 10 -20 10 -20 -4z"/>
<path d="M4949 1897 c0 -7 0 -31 1 -54 1 -23 -4 -51 -10 -62 -9 -18 -8 -21 9
-21 17 0 20 8 23 70 2 49 -1 71 -9 75 -7 2 -13 -1 -14 -8z"/>
<path d="M2640 1830 c0 -67 1 -70 23 -66 12 3 25 5 28 5 4 1 9 11 12 23 4 12
9 19 13 16 3 -4 3 -19 0 -33 -7 -26 -8 -27 -76 -23 -67 3 -88 -3 -54 -16 9 -3
21 -3 26 1 6 3 8 2 5 -3 -3 -6 18 -10 48 -10 29 0 52 3 49 7 -2 4 3 12 11 19
19 16 19 44 0 60 -13 10 -19 9 -35 -5 -11 -10 -23 -15 -27 -12 -3 4 -1 7 6 7
7 0 9 4 6 10 -12 20 -14 70 -2 70 13 0 -12 20 -25 20 -5 0 -8 -31 -8 -70z"/>
<path d="M3890 1865 c0 -37 18 -47 40 -20 16 19 3 55 -21 55 -15 0 -19 -7 -19
-35z"/>
<path d="M3215 1851 c-8 -26 -3 -34 19 -29 12 2 13 7 2 27 l-14 24 -7 -22z"/>
<path d="M4620 1809 c0 -7 -3 -10 -6 -6 -3 3 -16 -3 -28 -14 -20 -19 -20 -21
-3 -30 12 -7 15 -17 11 -34 -5 -19 -2 -23 13 -20 10 2 23 4 29 4 6 1 16 13 23
27 12 27 9 34 -26 72 -10 10 -13 10 -13 1z m20 -48 c0 -10 -6 -23 -12 -29 -10
-8 -13 -3 -14 19 -1 18 4 29 12 29 8 0 14 -8 14 -19z"/>
<path d="M3193 1794 c-3 -8 -2 -21 1 -30 6 -15 8 -15 26 1 12 10 20 13 20 7 0
-7 5 -12 11 -12 6 0 9 10 7 23 -2 16 -10 22 -31 23 -16 1 -31 -5 -34 -12z"/>
<path d="M3504 1596 c-3 -9 -11 -13 -17 -9 -6 4 -7 1 -2 -7 6 -10 4 -12 -11
-6 -10 4 -15 4 -11 -1 5 -4 39 -6 78 -4 l69 3 -1 -29 0 -28 -16 23 c-23 33
-53 29 -53 -8 0 -31 17 -39 38 -18 9 9 12 6 12 -17 0 -23 -3 -26 -12 -17 -21
21 -38 13 -38 -18 0 -25 4 -30 25 -30 14 0 29 8 35 21 14 26 21 21 13 -9 -5
-20 -12 -22 -67 -21 -33 0 -55 3 -48 6 8 3 12 27 12 70 0 47 -3 64 -12 60 -8
-2 -13 -24 -13 -59 0 -36 -4 -55 -12 -55 -7 0 -10 4 -8 8 10 15 -26 33 -43 22
-15 -9 -17 -4 -17 36 0 25 4 51 8 58 17 26 -58 40 -85 16 -21 -18 -25 -48 -5
-37 9 6 9 4 -1 -8 -16 -20 -11 -110 7 -132 10 -12 26 -15 57 -12 31 3 42 1 37
-7 -8 -13 28 12 39 28 4 5 15 1 27 -10 14 -12 33 -17 59 -16 20 2 45 3 55 2
10 0 15 5 11 11 -5 8 -1 9 10 5 13 -5 17 -3 13 6 -3 8 -1 20 4 28 7 11 9 11 9
-3 0 -10 3 -17 8 -16 12 2 42 -14 38 -21 -6 -9 96 -7 112 3 7 4 10 12 7 17
-10 15 0 10 25 -11 23 -20 60 -27 60 -11 0 5 14 14 30 21 17 7 30 15 30 19 -1
18 -20 32 -41 29 -18 -2 -24 -9 -23 -25 0 -18 -5 -23 -23 -23 -21 0 -22 2 -11
14 8 7 25 41 38 75 14 33 27 61 30 61 3 0 16 -28 29 -62 13 -35 31 -69 39 -75
13 -11 10 -13 -20 -13 -41 0 -57 -14 -30 -25 26 -12 55 -5 75 16 10 10 22 19
27 19 6 0 10 29 10 64 0 49 -4 65 -16 70 -24 9 -24 8 -14 -20 16 -40 13 -94
-5 -94 -8 0 -15 7 -15 15 0 8 -5 15 -10 15 -6 0 -9 3 -9 8 1 4 0 9 -1 12 -1 3
-3 13 -5 23 -6 31 -35 67 -54 67 -12 0 -27 -18 -44 -50 -15 -28 -21 -48 -15
-44 7 5 8 3 4 -5 -5 -7 -14 -10 -20 -8 -9 4 -11 -2 -8 -18 2 -12 -1 -26 -7
-29 -6 -4 -11 -1 -12 6 -1 7 -2 36 -4 63 -1 28 -3 55 -4 62 0 7 -11 17 -22 24
-17 9 -20 8 -13 -3 6 -11 5 -11 -8 0 -12 10 -54 11 -65 1 -2 -1 -7 -2 -12 -3
-15 -2 -51 -53 -43 -61 4 -5 1 -4 -7 0 -11 6 -13 4 -8 -8 3 -8 0 -20 -7 -27
-10 -8 -15 -7 -19 4 -3 8 0 20 8 26 29 24 -12 79 -58 76 -18 -1 -38 2 -44 7
-9 6 -15 4 -19 -7z m-111 -33 c-20 -13 -23 -25 -23 -74 0 -55 1 -59 24 -59 13
0 31 10 40 23 l16 22 -2 -25 c-3 -23 -7 -25 -63 -27 -33 -1 -54 0 -47 3 8 4
12 28 12 70 0 44 -4 64 -12 65 -7 1 5 5 27 9 22 4 42 8 45 8 3 1 -5 -6 -17
-15z m407 -22 l0 -25 -20 22 c-38 41 -80 16 -80 -47 0 -43 14 -61 48 -61 21 0
24 4 20 30 -4 26 -1 30 17 30 20 0 22 -4 16 -32 -15 -74 -130 -44 -131 35 0
44 41 78 90 75 35 -2 40 -5 40 -27z m-37 -28 c-3 -7 -9 -10 -14 -7 -5 3 -9 -3
-10 -13 0 -11 -3 -13 -6 -5 -7 19 3 39 20 39 8 0 13 -6 10 -14z"/>
<path d="M2646 1581 c-16 -18 -22 -46 -8 -37 4 2 9 -3 10 -12 6 -62 10 -80 21
-99 6 -13 18 -23 26 -23 7 0 15 -6 17 -12 3 -9 9 -8 22 5 21 21 35 22 42 2 8
-20 30 -19 38 3 4 9 15 33 25 52 11 19 17 38 15 41 -2 4 3 21 12 38 18 36 6
62 -24 56 -9 -2 -20 -4 -24 -4 -5 -1 -8 -6 -8 -12 0 -7 12 -10 30 -7 26 4 28
3 17 -11 -8 -9 -24 -44 -37 -78 -12 -35 -26 -63 -30 -63 -4 0 -13 21 -21 47
l-13 47 -19 -47 c-11 -26 -23 -47 -26 -47 -4 0 -13 22 -20 48 -6 26 -18 60
-26 75 -14 27 -13 27 18 27 20 0 27 -3 19 -8 -9 -7 -9 -18 4 -56 l17 -48 13
38 c8 22 14 40 14 41 0 1 -7 9 -16 17 -14 15 -13 16 16 16 18 0 29 -4 25 -10
-7 -11 15 -90 25 -90 3 0 11 18 16 40 10 36 9 41 -15 62 -29 25 -71 34 -81 18
-5 -7 -15 -8 -32 -1 -21 8 -29 6 -42 -8z"/>
<path d="M2910 1588 c0 -5 -4 -7 -9 -4 -5 3 -11 -3 -14 -14 -3 -10 0 -21 7
-23 7 -3 6 -9 -4 -22 -13 -17 -13 -18 0 -10 13 8 13 7 1 -8 -11 -14 -11 -17 0
-17 11 0 11 -2 -1 -10 -8 -5 -10 -10 -3 -10 6 0 9 -8 6 -19 -10 -39 12 -56 71
-57 36 -1 54 2 53 10 -1 6 4 10 11 8 8 -1 11 2 8 7 -3 5 2 15 11 22 11 9 14
10 10 2 -8 -12 20 -46 40 -50 59 -12 63 -11 88 19 28 33 33 96 7 90 -9 -2 -11
2 -5 10 25 41 5 79 -44 86 -18 2 -23 -1 -17 -10 5 -10 4 -11 -6 -1 -11 10 -18
9 -34 -5 -11 -10 -16 -11 -11 -3 5 10 4 12 -3 7 -7 -4 -12 -13 -12 -20 0 -7
-7 -13 -15 -13 -9 0 -14 6 -11 13 3 8 1 16 -4 19 -16 10 -120 13 -120 3z m91
-28 c21 -12 26 -46 7 -52 -9 -3 -8 -9 5 -22 36 -37 6 -66 -66 -65 -29 0 -46 3
-39 6 8 3 12 27 12 68 0 41 -4 65 -12 68 -7 3 6 6 30 6 24 1 52 -4 63 -9z
m177 -20 l3 -25 -19 24 c-13 15 -25 22 -36 18 -26 -10 -19 -33 14 -47 76 -31
51 -104 -31 -92 -24 3 -29 9 -29 31 l0 26 19 -24 c20 -26 54 -26 59 1 2 12 -8
23 -32 35 -58 27 -44 87 19 81 24 -2 31 -8 33 -28z m-117 -18 c-8 -3 -7 -8 6
-17 15 -11 16 -16 5 -27 -20 -20 -45 17 -29 42 6 10 16 16 21 13 6 -4 5 -8 -3
-11z"/>
<path d="M2950 1530 c0 -25 4 -31 18 -28 11 2 17 12 17 28 0 16 -6 26 -17 28
-14 3 -18 -3 -18 -28z"/>
<path d="M2950 1460 c0 -27 3 -31 23 -28 16 2 22 10 22 28 0 18 -6 26 -22 28
-20 3 -23 -1 -23 -28z"/>
<path d="M4047 1593 c-15 -15 -5 -23 31 -24 20 0 31 -3 25 -6 -19 -7 -18 -133
1 -133 42 0 63 31 30 44 -10 4 -14 14 -11 26 3 11 0 20 -5 20 -6 0 -3 10 8 22
10 12 13 18 5 13 -9 -5 -12 -3 -9 6 9 26 -55 53 -75 32z"/>
<path d="M4307 1574 c-16 -13 -33 -40 -38 -60 -10 -35 -4 -78 10 -69 4 2 14
-7 21 -20 7 -13 25 -26 39 -29 45 -10 116 8 105 25 -3 5 0 9 6 9 6 0 9 14 7
35 -3 20 0 35 6 35 6 0 2 7 -9 15 -11 8 -14 14 -6 15 9 0 10 5 3 19 -6 10 -9
20 -7 22 2 2 -3 11 -12 19 -14 13 -15 12 -9 -5 6 -17 5 -18 -5 -5 -16 20 -57
23 -77 7 -12 -9 -13 -9 -7 1 10 17 5 15 -27 -14z m107 -20 c17 -16 21 -34 8
-34 -4 0 -13 9 -20 20 -27 43 -76 14 -76 -45 0 -41 19 -65 50 -65 19 0 24 5
24 24 0 13 -6 27 -12 29 -7 3 3 6 22 6 25 1 31 -2 23 -10 -6 -6 -9 -18 -6 -26
14 -35 -74 -46 -107 -13 -27 27 -27 83 2 110 26 24 70 26 92 4z m-35 -46 c-6
-10 -15 -15 -22 -11 -8 5 -8 8 1 11 7 2 10 7 8 11 -3 4 1 8 9 8 10 0 11 -5 4
-19z"/>
<path d="M4497 1585 c-11 -5 -18 -12 -17 -15 2 -3 -2 -15 -8 -27 -8 -14 -8
-24 -2 -28 5 -3 6 -15 1 -28 -5 -14 -5 -30 0 -40 7 -11 6 -17 0 -17 -18 0 0
-29 22 -37 26 -8 50 -5 58 9 4 6 12 7 20 2 18 -11 60 -13 53 -2 -3 4 0 8 5 8
6 0 11 4 11 8 0 5 -12 7 -27 5 -24 -3 -31 2 -51 36 -17 32 -19 41 -8 41 7 0
17 7 20 16 7 19 -10 44 -30 44 -19 0 -20 -126 -1 -133 6 -3 -3 -6 -22 -6 -26
-1 -31 2 -23 12 16 19 9 116 -8 128 -21 13 66 12 91 -1 23 -13 25 -48 4 -64
-13 -10 -12 -15 9 -41 24 -29 25 -30 43 -11 15 15 15 18 2 13 -12 -4 -15 1
-15 18 1 13 5 27 9 31 3 4 1 16 -5 28 -6 11 -9 21 -7 22 2 0 -3 8 -12 17 -9 9
-19 13 -23 10 -3 -4 -6 -1 -6 5 0 13 -55 11 -83 -3z"/>
<path d="M4717 1594 c-3 -3 -11 -7 -19 -8 -7 -2 -21 -7 -31 -11 -15 -6 -16
-10 -5 -16 10 -7 11 -9 0 -9 -7 0 -10 -4 -7 -10 3 -5 1 -10 -6 -10 -7 0 -9 -3
-6 -7 4 -3 1 -13 -6 -21 -10 -13 -9 -14 3 -7 13 7 13 6 2 -7 -10 -13 -10 -17
4 -22 14 -5 14 -9 3 -24 -7 -9 -10 -14 -6 -11 5 4 19 -3 33 -16 18 -17 34 -22
66 -20 58 3 60 4 53 15 -3 6 1 10 10 10 9 0 22 15 30 33 8 17 15 26 16 20 1
-7 2 -18 3 -24 1 -14 47 -61 54 -55 2 3 12 1 22 -4 22 -12 80 23 80 47 0 13 7
10 26 -14 20 -26 32 -32 60 -31 35 1 56 21 47 45 -2 6 9 19 24 28 22 13 30 25
31 52 3 36 -22 78 -39 67 -5 -3 -9 -1 -9 3 0 5 -20 9 -45 9 -25 0 -39 -4 -32
-8 19 -12 -41 -10 -64 3 -12 6 -28 7 -37 3 -9 -4 -21 -6 -25 -5 -5 1 -6 -3 -3
-8 4 -5 -3 -12 -14 -16 -17 -5 -20 -15 -20 -65 0 -50 3 -60 20 -65 34 -11 50
12 50 70 0 33 -5 55 -12 58 -7 3 0 6 16 6 22 1 26 -2 18 -12 -6 -7 -11 -34
-10 -60 1 -55 -14 -77 -53 -77 -42 0 -59 24 -59 85 0 39 -4 54 -16 59 -24 9
-28 7 -15 -8 9 -10 8 -15 -2 -19 -9 -3 -20 4 -27 18 -7 13 -20 27 -29 30 -23
10 -68 15 -74 9z m58 -30 c23 -9 47 -61 39 -87 -17 -57 -84 -77 -124 -37 -57
57 9 153 85 124z m271 -50 c1 -87 3 -94 19 -88 19 8 22 130 3 137 -7 3 5 6 27
6 41 1 85 -21 85 -41 0 -20 -33 -48 -57 -48 -17 0 -23 -6 -23 -21 0 -12 7 -27
15 -33 12 -9 6 -11 -27 -10 -33 1 -44 6 -52 23 -5 11 -12 21 -15 21 -6 0 -6
30 -2 103 1 5 7 7 14 4 7 -2 12 -23 13 -53z m-90 -11 c3 -23 1 -25 -12 -11 -8
8 -12 22 -8 32 8 22 17 13 20 -21z"/>
<path d="M4710 1540 c-16 -30 -9 -91 13 -104 22 -14 49 2 61 36 20 56 -47 118
-74 68z m33 -27 c-5 -12 -2 -15 10 -10 21 8 21 5 -1 -21 -18 -20 -18 -20 -19
14 -1 19 3 34 8 34 4 0 5 -8 2 -17z"/>
<path d="M5100 1525 c0 -28 4 -35 19 -35 24 0 37 36 21 55 -22 27 -40 17 -40
-20z"/>
<path d="M4867 1593 c-28 -7 -9 -23 28 -23 24 0 33 4 29 13 -5 13 -26 17 -57
10z"/>
<path d="M3912 1510 c-7 -19 -6 -26 5 -28 21 -5 25 2 14 29 l-9 24 -10 -25z"/>
<path d="M4150 1481 c0 -5 4 -11 10 -13 5 -1 7 -13 4 -25 -6 -21 -13 -23 -66
-23 -43 0 -59 -3 -56 -12 7 -20 109 -20 131 0 20 17 22 53 5 70 -14 14 -28 16
-28 3z"/>
<path d="M23 68 c-2 -5 1328 -8 2956 -8 1628 0 2962 3 2964 7 3 5 -1327 8
-2955 8 -1628 0 -2962 -3 -2965 -7z"/>
</g>
</svg>
